<svg width="17" height="17" viewBox="0 0 17 17" fill="none" xmlns="http://www.w3.org/2000/svg">
<path d="M13.2 3.77329C12.5888 3.15591 11.8608 2.6664 11.0584 2.33333C10.256 2.00025 9.39538 1.83027 8.52664 1.83329C4.88664 1.83329 1.91997 4.79996 1.91997 8.43996C1.91997 9.60662 2.22664 10.74 2.79997 11.74L1.86664 15.1666L5.36664 14.2466C6.3333 14.7733 7.41997 15.0533 8.52664 15.0533C12.1666 15.0533 15.1333 12.0866 15.1333 8.44662C15.1333 6.67996 14.4466 5.01996 13.2 3.77329ZM8.52664 13.9333C7.53997 13.9333 6.5733 13.6666 5.72664 13.1666L5.52664 13.0466L3.44664 13.5933L3.99997 11.5666L3.86664 11.36C3.31847 10.4846 3.0274 9.47279 3.02664 8.43996C3.02664 5.41329 5.4933 2.94663 8.51997 2.94663C9.98664 2.94663 11.3666 3.51996 12.4 4.55996C12.9116 5.06927 13.3171 5.67507 13.5929 6.34224C13.8687 7.00942 14.0093 7.7247 14.0066 8.44662C14.02 11.4733 11.5533 13.9333 8.52664 13.9333ZM11.54 9.82662C11.3733 9.74662 10.56 9.34663 10.4133 9.28662C10.26 9.23329 10.1533 9.20662 10.04 9.36662C9.92664 9.53329 9.6133 9.90662 9.51997 10.0133C9.42664 10.1266 9.32664 10.14 9.15997 10.0533C8.9933 9.97329 8.45997 9.79329 7.8333 9.23329C7.33997 8.79329 7.0133 8.25329 6.9133 8.08663C6.81997 7.91996 6.89997 7.83329 6.98664 7.74662C7.05997 7.67329 7.1533 7.55329 7.2333 7.45996C7.3133 7.36662 7.34664 7.29329 7.39997 7.18662C7.4533 7.07329 7.42664 6.97996 7.38664 6.89996C7.34664 6.81996 7.0133 6.00663 6.87997 5.67329C6.74664 5.35329 6.60664 5.39329 6.50664 5.38663H6.18664C6.0733 5.38663 5.89997 5.42663 5.74664 5.59329C5.59997 5.75996 5.1733 6.15996 5.1733 6.97329C5.1733 7.78663 5.76664 8.57329 5.84664 8.67996C5.92664 8.79329 7.0133 10.46 8.66664 11.1733C9.05997 11.3466 9.36664 11.4466 9.60664 11.52C9.99997 11.6466 10.36 11.6266 10.6466 11.5866C10.9666 11.54 11.6266 11.1866 11.76 10.8C11.9 10.4133 11.9 10.0866 11.8533 10.0133C11.8066 9.93996 11.7066 9.90662 11.54 9.82662Z" fill="white"/>
</svg>
