<svg width="170" height="146" viewBox="0 0 170 146" fill="none" xmlns="http://www.w3.org/2000/svg">
<path d="M95.1266 86.8033C95.2592 86.8033 95.5252 86.9365 95.6577 86.9365L96.1898 87.0688C97.1204 87.3343 98.0518 87.733 98.5839 88.1309C98.5839 88.7942 97.7858 90.5197 97.3864 91.4495C96.1898 94.1038 94.3286 98.2181 97.7858 100.872C98.3178 101.271 98.849 101.537 99.5145 101.669C99.115 102.332 98.7164 103.129 98.7164 104.058C98.849 107.111 102.041 107.774 103.37 108.04C103.37 108.836 103.238 110.031 103.104 111.093C102.706 114.013 102.174 117.729 103.238 121.18C103.902 123.303 105.232 125.162 107.226 126.622C109.221 127.949 111.615 128.745 114.141 128.745C114.54 128.745 114.939 128.745 115.338 128.745C125.178 127.949 135.55 124.631 145.256 119.189C145.788 128.082 144.591 134.984 138.607 141.62C137.943 142.417 137.81 143.478 138.209 144.408C138.607 145.337 139.538 146 140.602 146H166.93C168.394 146 169.59 144.806 169.59 143.346C169.59 141.886 168.394 140.691 166.93 140.691H145.921C150.575 133.391 151.107 125.56 150.309 116.136C155.362 112.685 157.888 109.102 157.622 105.518C157.49 104.058 156.293 102.997 154.697 103.129C153.234 103.262 152.17 104.589 152.304 106.049C152.436 107.376 150.575 110.164 144.857 113.349L144.459 113.615C134.884 119.189 124.646 122.64 114.939 123.437C113.21 123.569 111.615 123.171 110.418 122.375C109.487 121.711 108.69 120.781 108.424 119.72C107.758 117.464 108.158 114.411 108.424 111.756C108.822 109.102 109.088 106.979 108.29 105.253C107.758 103.926 106.562 103.395 105.497 103.129C106.562 102.067 107.492 100.872 107.226 99.147C106.695 96.7582 104.168 96.7582 102.572 96.6259C102.174 96.6259 101.642 96.6259 101.243 96.6259C101.376 95.9616 102.04 94.6349 102.306 93.7051C103.504 91.0507 105.365 87.0688 102.306 84.2821C100.977 83.0877 99.381 82.5566 98.0518 82.0256L97.5198 81.8924C97.2538 81.7601 97.1204 81.7601 96.8552 81.6277C96.3232 81.4945 95.6577 81.229 95.5252 81.0967C95.5252 81.0967 95.5252 80.9635 95.5252 80.8312C96.3232 79.1057 97.6524 77.3803 99.2484 75.3893C100.711 73.6638 102.306 71.5396 103.769 69.1508C104.035 68.6197 104.301 68.2219 104.567 67.6908C106.961 63.7089 109.62 59.3291 108.69 54.5505C107.36 47.2508 108.024 41.1456 111.083 34.6416C121.321 12.7416 141.799 7.29969 150.043 5.97296C153.766 5.44191 157.49 5.04406 161.346 5.04406C163.34 5.04406 165.201 5.17639 167.196 5.30871C168.659 5.44191 169.989 4.37981 169.989 2.91988C170.122 1.45994 169.058 0.132321 167.595 0.132321C165.335 0.132321 163.208 0 161.213 0C157.09 0 153.102 0.265524 149.113 0.928891C140.07 2.38883 117.598 8.36178 106.163 32.5182C102.706 39.9511 101.775 47.384 103.37 55.7458C103.902 58.4002 101.908 61.8511 99.913 65.1688C99.647 65.6999 99.2484 66.2309 98.9824 66.6288C97.7858 68.6197 96.3232 70.4784 94.9932 72.2039C93.2645 74.3272 91.5359 76.4514 90.4719 78.9725C89.6747 80.698 89.9407 82.689 90.8713 84.1489C92.0679 85.8744 93.9291 86.4054 95.1266 86.8033Z" fill="white"/>
<path d="M2.67929 5.56411C4.68058 5.43203 6.54886 5.29907 8.54926 5.29907C12.2849 5.29907 16.1545 5.56411 19.8902 6.22715C28.1614 7.55148 48.5742 12.9835 58.9805 34.8437C62.0485 41.2029 62.7162 47.4301 61.3817 54.7165C60.448 59.3543 63.1161 63.8583 65.5173 67.833C65.7842 68.3631 66.0511 68.7602 66.318 69.2903C67.7855 71.6748 69.3869 73.6622 70.8543 75.5175C72.4548 77.5048 73.7893 79.0942 74.59 80.9495C74.59 81.0816 74.59 81.2145 74.723 81.0816C74.59 81.3466 73.9223 81.4787 73.2555 81.7437C72.9886 81.8767 72.7217 81.8767 72.5887 82.0088L72.0549 82.1417C70.7205 82.6718 69.12 83.201 67.7855 84.3941C64.7175 87.1758 66.5849 91.1505 67.7855 93.8C68.1863 94.5952 68.7192 95.9204 68.8531 96.7146C68.4523 96.7146 67.9194 96.7146 67.5186 96.7146C65.9181 96.7146 63.383 96.8476 62.8492 99.2321C62.4493 100.954 63.516 102.147 64.5836 103.207C63.516 103.472 62.3154 104.002 61.7816 105.326C60.9818 107.049 61.3817 109.169 61.6486 111.818C62.0485 114.468 62.3154 117.383 61.6486 119.768C61.3817 120.695 60.7149 121.622 59.6473 122.417C58.4467 123.213 56.8453 123.61 55.1109 123.478C45.3723 122.683 35.0989 119.238 25.4933 113.674L25.0934 113.409C19.3564 110.229 17.4881 107.447 17.622 106.121C17.755 104.664 16.6883 103.34 15.2208 103.207C13.7524 103.075 12.4188 104.134 12.2849 105.591C12.018 109.169 14.4201 112.746 19.6233 116.19C18.6896 125.597 19.3564 133.414 24.0258 140.701H2.81318C1.34569 140.701 0.144205 141.893 0.144205 143.35C0.144205 144.808 1.34569 146 2.81318 146H29.229C30.2965 146 31.2302 145.338 31.6301 144.41C32.0309 143.483 31.897 142.29 31.2302 141.628C25.3603 135.004 24.0258 128.115 24.5596 119.238C34.2982 124.537 44.5716 127.849 54.578 128.777C54.9779 128.777 55.3778 128.777 55.7786 128.777C58.3128 128.777 60.8479 127.982 62.7162 126.657C64.7175 125.2 66.0511 123.345 66.7179 121.225C67.6525 117.913 67.2517 114.203 66.8518 111.156C66.7179 109.964 66.5849 108.639 66.5849 107.844C67.9194 107.579 71.1212 107.049 71.2543 103.869C71.2543 102.942 70.9874 102.147 70.4536 101.484C71.1212 101.352 71.655 101.087 72.188 100.689C75.6567 98.0398 73.7893 93.933 72.5887 91.2835C72.188 90.3554 71.3881 88.633 71.3881 87.9709C71.9211 87.5738 72.8556 87.1758 73.7893 86.9107L74.3231 86.7786C74.4561 86.7786 74.723 86.6457 74.8569 86.6457C76.0575 86.2486 77.9249 85.7185 79.1255 83.8641C80.0601 82.4068 80.3261 80.4194 79.5263 78.6971C78.4587 76.1796 76.8582 74.1922 74.9899 71.9398C73.6554 70.2175 72.188 68.4952 70.9874 66.3757C70.7205 65.8456 70.4536 65.3156 70.0537 64.9184C68.0524 61.6059 66.0511 58.2942 66.5849 55.5117C68.1863 47.1651 67.2517 39.7457 63.7829 32.4592C52.3098 8.47869 29.8958 2.38449 20.69 0.927205C16.6883 0.265041 12.6857 0 8.54926 0C6.54886 0 4.41368 0.132081 2.41239 0.265041C0.944897 0.397122 -0.121806 1.59025 0.0111992 3.04754C0.0111992 4.50482 1.34569 5.56411 2.67929 5.56411Z" fill="white"/>
</svg>
