<svg width="207" height="170" viewBox="0 0 207 170" fill="none" xmlns="http://www.w3.org/2000/svg">
<mask id="mask0_246_75" style="mask-type:luminance" maskUnits="userSpaceOnUse" x="0" y="0" width="207" height="170">
<path d="M0 0H207V169.261H0V0Z" fill="white"/>
</mask>
<g mask="url(#mask0_246_75)">
<path d="M206.947 33.1996C206.947 14.8928 187.226 0 162.988 0C138.75 0 119.039 14.8928 119.039 33.1996C119.039 36.7799 119.829 40.2878 121.272 43.6264H19.2755C14.6846 43.6264 10.9371 47.6291 10.9371 52.5583V141.022H8.06178C3.64014 141.022 0.0385742 144.435 0.0385742 148.638C0.0385742 160.024 10.115 169.303 22.4874 169.303H166.737C179.119 169.303 189.185 160.034 189.185 148.638C189.185 144.445 185.583 141.022 181.151 141.022H178.287V64.2922C194.997 59.5833 206.947 47.4393 206.947 33.1996ZM162.988 7.40455C183.141 7.40455 199.546 18.9802 199.546 33.2098C199.546 47.4393 183.152 59.015 162.988 59.015C158.692 59.015 154.481 58.4885 150.469 57.4457C148.626 56.9611 147.31 57.8457 145.783 58.8783C143.688 60.2996 139.845 62.9015 133.18 64.6605C136.16 58.8467 137.623 52.0737 134.528 49.3565C129.232 44.711 126.431 39.1287 126.431 33.22C126.441 18.9802 142.836 7.40455 162.988 7.40455ZM181.162 148.427C181.551 148.427 181.761 148.617 181.793 148.638C181.793 155.948 175.044 161.898 166.737 161.898H22.4874C14.1899 161.898 7.43041 155.948 7.42021 148.691C7.45183 148.628 7.67215 148.438 8.06178 148.438L65.4982 148.406C68.0359 150.007 71.8058 151.913 75.3961 151.913H113.838C117.997 151.913 121.809 150.629 124.062 148.543L181.162 148.427ZM170.895 141.044L124.083 141.128C122.283 141.139 120.608 141.76 119.366 142.876C118.534 143.624 116.586 144.498 113.849 144.498H75.3961C74.0375 144.498 71.7528 143.592 69.4578 142.139C68.3103 141.412 66.9833 141.022 65.6359 141.022H18.3381V52.5583C18.3381 51.6207 18.8971 51.0309 19.2755 51.0309H125.905C126.831 52.1369 127.81 53.2114 128.916 54.2327C128.8 56.203 127.221 61.6801 123.577 65.9135C122.356 67.3256 122.145 69.2949 123.019 70.9274C123.809 72.413 125.325 73.2976 126.989 73.2976C127.189 73.2976 127.389 73.2864 127.589 73.266C140.161 71.6335 147.026 66.9879 149.953 65.0084C149.974 64.987 150.006 64.9768 150.026 64.9554C154.218 65.9247 158.576 66.4196 162.999 66.4196C165.705 66.4196 168.337 66.2084 170.906 65.8502V141.044H170.895Z" fill="white"/>
<path d="M160.525 29.6081H141.952C139.909 29.6081 138.255 27.9541 138.255 25.9104C138.255 23.8677 139.909 22.2137 141.952 22.2137H160.525C162.568 22.2137 164.22 23.8677 164.22 25.9104C164.22 27.9541 162.568 29.6081 160.525 29.6081Z" fill="white"/>
<path d="M182.815 43.5213H141.952C139.909 43.5213 138.255 41.8673 138.255 39.8246C138.255 37.7809 139.909 36.127 141.952 36.127H182.815C184.858 36.127 186.511 37.7809 186.511 39.8246C186.521 41.8673 184.858 43.5213 182.815 43.5213Z" fill="white"/>
<path d="M127.284 136.399H62.4874C60.4454 136.399 58.792 134.745 58.792 132.701V124.897C58.792 113.827 67.7944 104.822 78.8602 104.822H110.921C121.988 104.822 130.991 113.827 130.991 124.897V132.701C130.991 134.745 129.327 136.399 127.284 136.399ZM66.1828 128.994H123.589V124.887C123.589 117.893 117.902 112.205 110.911 112.205H78.8602C71.8692 112.205 66.1828 117.893 66.1828 124.887V128.994Z" fill="white"/>
<path d="M94.8861 100.219C83.2614 100.219 73.7959 90.7606 73.7959 79.1217C73.7959 67.4828 83.2614 58.0355 94.8861 58.0355C106.51 58.0355 115.975 67.494 115.975 79.1319C115.975 90.7708 106.51 100.219 94.8861 100.219ZM94.8861 65.4401C87.3362 65.4401 81.1979 71.5804 81.1979 79.1319C81.1979 86.6844 87.3362 92.8248 94.8861 92.8248C102.435 92.8248 108.573 86.6844 108.573 79.1319C108.573 71.5804 102.435 65.4401 94.8861 65.4401Z" fill="white"/>
</g>
</svg>
