<svg width="17" height="17" viewBox="0 0 17 17" fill="none" xmlns="http://www.w3.org/2000/svg">
<path d="M11.8333 1.83325H5.16665C3.3257 1.83325 1.83331 3.32564 1.83331 5.16659V11.8333C1.83331 13.6742 3.3257 15.1666 5.16665 15.1666H11.8333C13.6743 15.1666 15.1666 13.6742 15.1666 11.8333V5.16659C15.1666 3.32564 13.6743 1.83325 11.8333 1.83325Z" stroke="white" stroke-linecap="round" stroke-linejoin="round"/>
<path d="M11.1667 8.07996C11.2489 8.63479 11.1542 9.20143 10.8958 9.6993C10.6375 10.1972 10.2288 10.6009 9.72776 10.8531C9.22675 11.1052 8.65897 11.193 8.1052 11.1039C7.55143 11.0148 7.03985 10.7533 6.64323 10.3567C6.24662 9.96012 5.98516 9.44854 5.89605 8.89477C5.80694 8.34099 5.89472 7.77322 6.14689 7.27221C6.39907 6.77119 6.8028 6.36245 7.30066 6.10412C7.79853 5.84579 8.36518 5.75102 8.92001 5.83329C9.48596 5.91721 10.0099 6.18093 10.4145 6.58549C10.819 6.99006 11.0828 7.51401 11.1667 8.07996Z" stroke="white" stroke-linecap="round" stroke-linejoin="round"/>
<path d="M12.1667 4.83325H12.1734" stroke="white" stroke-width="2" stroke-linecap="round" stroke-linejoin="round"/>
</svg>
